<?xml version="1.0" encoding="UTF-8"?><svg id="Capa_1" xmlns="http://www.w3.org/2000/svg" viewBox="0 0 1366 768"><defs><style>.cls-1{fill:#8c9481;}.cls-1,.cls-2{stroke-width:0px;}.cls-2{fill:#fff;}</style></defs><path class="cls-2" d="m239.44,183.19L78.87,448.23h162.85v28.28H41.47v-25.54L202.04,185.93H44.21v-28.28h195.24v25.55Z"/><path class="cls-2" d="m852.5,157.65c73.9,0,108.57,40.14,108.57,92.6,0,43.79-24.63,80.74-78.46,90.78l82.11,135.48h-38.32l-78.92-133.2h-58.85v133.2h-31.93V157.65h95.79Zm0,26.91h-63.86v132.74h64.32c52,0,75.27-28.28,75.27-67.05s-21.89-65.69-75.72-65.69Z"/><path class="cls-2" d="m1167.7,479.7c-89.41,0-157.83-67.06-157.83-162.85s68.42-162.85,157.83-162.85,157.83,67.51,157.83,162.85-67.97,162.85-157.83,162.85Zm0-27.83c70.71,0,124.99-51.55,124.99-135.03s-54.28-134.57-124.99-134.57-124.99,51.09-124.99,134.57,54.28,135.03,124.99,135.03Z"/><polygon class="cls-1" points="329.76 329.17 387.1 329.17 387.1 302.71 329.76 302.71 329.76 183.65 464.32 183.65 464.32 157.19 297.82 157.19 297.82 476.51 464.32 476.51 464.32 450.05 329.76 450.05 329.76 329.17"/><polygon class="cls-1" points="527.26 157.19 527.26 183.65 661.83 183.65 661.83 302.71 606.86 302.71 606.86 329.17 661.83 329.17 661.83 450.05 527.26 450.05 527.26 476.51 693.76 476.51 693.76 157.19 527.26 157.19"/><path class="cls-2" d="m71.19,583.74c12.93,0,21.55,7.23,24.79,16.06v-15.31h4.85v58.53h-4.85v-15.41c-3.24,8.94-11.97,16.27-24.79,16.27-16.39,0-28.25-11.75-28.25-30.18s11.86-29.97,28.25-29.97Zm.65,4.21c-14.12,0-23.93,9.59-23.93,25.76s9.81,25.87,23.93,25.87,24.14-10.02,24.14-25.87-10.46-25.76-24.14-25.76Z"/><path class="cls-2" d="m139.53,643.03h-4.86v-58.53h4.86v12.07c2.91-8.52,10.13-13.26,21.66-13.26v5.07h-1.62c-10.02,0-20.04,4.96-20.04,20.91v33.74Z"/><path class="cls-2" d="m213.9,583.74c14.88,0,24.58,8.08,26.84,20.27h-5.06c-1.94-10.02-10.35-16.17-21.78-16.17-12.51,0-23.39,8.3-23.39,25.87s10.88,25.98,23.39,25.98c11.43,0,19.83-6.04,21.78-16.17h5.06c-2.26,11.97-11.96,20.37-26.84,20.37-16.49,0-28.35-11.43-28.35-30.18s11.86-29.97,28.35-29.97Z"/><path class="cls-2" d="m271.67,563.27h4.86v33.63c3.45-9.05,11.85-13.58,21.66-13.58,12.93,0,23.5,7.87,23.5,25.44v34.28h-4.74v-33.95c0-14.23-7.87-21.56-19.61-21.56s-20.8,7.65-20.8,23.93v31.58h-4.86v-79.77Z"/><path class="cls-2" d="m353.38,567.25c0-2.48,1.83-4.2,4.1-4.2s4.09,1.72,4.09,4.2-1.83,4.21-4.09,4.21-4.1-1.62-4.1-4.21Zm1.61,17.25h4.86v58.53h-4.86v-58.53Z"/><path class="cls-2" d="m396.17,588.71h-8.84v-4.2h8.84v-14.88h4.86v14.88h17.35v4.2h-17.35v38.7c0,8.84,2.91,11.32,10.77,11.32h6.58v4.31h-7.33c-10.02,0-14.88-4.1-14.88-15.63v-38.7Z"/><path class="cls-2" d="m472.81,643.89c-16.38,0-28.46-11.43-28.46-30.18s11.86-29.97,28.46-29.97c17.57,0,27.27,12.51,27.27,26.09,0,2.58,0,3.87-.22,5.81h-50.55c.43,16.28,11.43,24.04,23.5,24.04s19.83-6.15,21.78-15.85h5.07c-2.27,11.54-11.86,20.05-26.84,20.05Zm-23.5-32.23h45.92c.76-16.27-10.67-23.82-22.53-23.82s-22.85,7.65-23.39,23.82Z"/><path class="cls-2" d="m556.25,583.74c14.88,0,24.58,8.08,26.84,20.27h-5.06c-1.94-10.02-10.35-16.17-21.78-16.17-12.51,0-23.39,8.3-23.39,25.87s10.88,25.98,23.39,25.98c11.43,0,19.83-6.04,21.78-16.17h5.06c-2.26,11.97-11.96,20.37-26.84,20.37-16.49,0-28.35-11.43-28.35-30.18s11.86-29.97,28.35-29.97Z"/><path class="cls-2" d="m616.39,588.71h-8.84v-4.2h8.84v-14.88h4.86v14.88h17.35v4.2h-17.35v38.7c0,8.84,2.91,11.32,10.77,11.32h6.58v4.31h-7.33c-10.02,0-14.88-4.1-14.88-15.63v-38.7Z"/><path class="cls-2" d="m717.07,643.03h-4.85v-12.72c-3.34,9.16-11.85,13.68-21.45,13.68-13.05,0-23.71-7.76-23.71-25.43v-34.06h4.74v33.74c0,14.33,7.87,21.55,19.62,21.55s20.8-7.66,20.8-23.92v-31.37h4.85v58.53Z"/><path class="cls-2" d="m755.77,643.03h-4.86v-58.53h4.86v12.07c2.91-8.52,10.13-13.26,21.66-13.26v5.07h-1.62c-10.02,0-20.04,4.96-20.04,20.91v33.74Z"/><path class="cls-2" d="m830.25,643.89c-16.38,0-28.46-11.43-28.46-30.18s11.86-29.97,28.46-29.97c17.57,0,27.27,12.51,27.27,26.09,0,2.58,0,3.87-.22,5.81h-50.55c.43,16.28,11.43,24.04,23.5,24.04s19.83-6.15,21.78-15.85h5.07c-2.27,11.54-11.86,20.05-26.84,20.05Zm-23.5-32.23h45.92c.76-16.27-10.67-23.82-22.53-23.82s-22.85,7.65-23.39,23.82Z"/><path class="cls-2" d="m954.44,643.89c-12.83,0-21.88-5.82-22.96-16.6h4.95c.76,7.44,6.91,12.39,18.01,12.39,9.16,0,14.55-5.39,14.55-11.75,0-16.17-35.9-6.79-35.9-29,0-8.2,7.98-15.2,19.4-15.2,12.18,0,20.27,6.36,20.91,17.25h-4.85c-.44-7.33-5.82-13.15-16.17-13.15-8.52,0-14.44,5.07-14.44,11.1,0,18.11,35.57,8.52,35.78,29,0,9.16-8.08,15.95-19.29,15.95Z"/><path class="cls-2" d="m1007.03,588.71h-8.84v-4.2h8.84v-14.88h4.86v14.88h17.35v4.2h-17.35v38.7c0,8.84,2.91,11.32,10.77,11.32h6.58v4.31h-7.33c-10.02,0-14.88-4.1-14.88-15.63v-38.7Z"/><path class="cls-2" d="m1107.71,643.03h-4.85v-12.72c-3.34,9.16-11.85,13.68-21.45,13.68-13.05,0-23.71-7.76-23.71-25.43v-34.06h4.74v33.74c0,14.33,7.87,21.55,19.62,21.55s20.8-7.66,20.8-23.92v-31.37h4.85v58.53Z"/><path class="cls-2" d="m1166.79,583.74c12.29,0,21.34,6.91,24.79,16.06v-36.54h4.85v79.77h-4.85v-15.52c-3.24,9.17-11.97,16.39-24.79,16.39-16.39,0-28.25-11.75-28.25-30.18s11.86-29.97,28.25-29.97Zm.65,4.21c-14.12,0-23.93,9.59-23.93,25.76s9.81,25.87,23.93,25.87,24.14-10.02,24.14-25.87-10.46-25.76-24.14-25.76Z"/><path class="cls-2" d="m1228.66,567.25c0-2.48,1.83-4.2,4.1-4.2s4.09,1.72,4.09,4.2-1.83,4.21-4.09,4.21-4.1-1.62-4.1-4.21Zm1.61,17.25h4.86v58.53h-4.86v-58.53Z"/><path class="cls-2" d="m1294.84,643.89c-16.38,0-28.78-11.43-28.78-30.18s12.61-29.97,29-29.97,28.78,11.32,28.78,29.97-12.61,30.18-29,30.18Zm0-4.32c12.29,0,24.15-8.08,24.15-25.87s-11.75-25.76-24.04-25.76-23.93,8.08-23.93,25.76,11.53,25.87,23.82,25.87Z"/></svg>